<?xml version="1.0" encoding="UTF-8"?>
<svg id="Camada_1" data-name="Camada 1" xmlns="http://www.w3.org/2000/svg" viewBox="0 0 30 31">
  <defs>
    <style>
      .cls-1 {
        fill: #0b1247;
        fill-rule: evenodd;
        stroke-width: 0px;
      }
    </style>
  </defs>
  <path class="cls-1" d="m7.5,15.6c0-3,0-4.49.71-5.57.32-.48.73-.89,1.21-1.21,1.08-.71,2.58-.71,5.57-.71s4.49,0,5.57.71c.48.32.89.73,1.21,1.21.71,1.08.71,2.58.71,5.57s0,4.49-.71,5.57c-.32.48-.73.89-1.21,1.21-1.08.71-2.58.71-5.57.71s-4.49,0-5.57-.71c-.48-.32-.89-.73-1.21-1.21-.71-1.08-.71-2.58-.71-5.57Zm11.38,0c0,2.14-1.74,3.88-3.88,3.88s-3.88-1.74-3.88-3.88,1.74-3.88,3.88-3.88,3.88,1.74,3.88,3.88Zm-3.88,2.57c1.42,0,2.57-1.15,2.57-2.57s-1.15-2.57-2.57-2.57-2.57,1.15-2.57,2.57,1.15,2.57,2.57,2.57Zm4.04-5.73c.5,0,.91-.41.91-.91s-.41-.91-.91-.91-.91.41-.91.91.41.91.91.91Z"/>
</svg>