<?xml version="1.0" encoding="UTF-8"?>
<svg id="Camada_1" data-name="Camada 1" xmlns="http://www.w3.org/2000/svg" viewBox="0 0 30 31">
  <defs>
    <style>
      .cls-1 {
        fill: #0b1247;
        stroke-width: 0px;
      }
    </style>
  </defs>
  <path class="cls-1" d="m15.37,21.41l-3.39-.06c-1.1-.02-2.19.02-3.27-.21-1.63-.34-1.75-2.01-1.87-3.42-.17-1.97-.1-3.98.21-5.94.18-1.1.88-1.75,1.96-1.82,3.65-.26,7.33-.23,10.98-.11.39.01.77.07,1.15.14,1.87.34,1.92,2.23,2.04,3.83.12,1.61.07,3.23-.16,4.84-.19,1.33-.54,2.44-2.04,2.55-1.88.14-3.72.25-5.6.22,0,0-.01,0-.02,0Zm-1.99-3.36c1.42-.83,2.81-1.65,4.21-2.47-1.42-.83-2.81-1.65-4.21-2.47v4.95Z"/>
</svg>